<svg width="11" height="11" viewBox="0 0 11 11" fill="none" xmlns="http://www.w3.org/2000/svg">
<path fill-rule="evenodd" clip-rule="evenodd" d="M2.50663 1.13163C2.53856 1.09962 2.57649 1.07422 2.61826 1.05689C2.66002 1.03956 2.70479 1.03064 2.75 1.03064C2.79522 1.03064 2.83999 1.03956 2.88175 1.05689C2.92351 1.07422 2.96145 1.09962 2.99338 1.13163L7.11838 5.25663C7.15039 5.28856 7.17579 5.32649 7.19312 5.36826C7.21045 5.41002 7.21937 5.45479 7.21937 5.5C7.21937 5.54522 7.21045 5.58999 7.19312 5.63175C7.17579 5.67351 7.15039 5.71145 7.11838 5.74338L2.99338 9.86838C2.92883 9.93293 2.84129 9.96919 2.75 9.96919C2.65872 9.96919 2.57118 9.93293 2.50663 9.86838C2.44208 9.80383 2.40582 9.71629 2.40582 9.625C2.40582 9.53372 2.44208 9.44618 2.50663 9.38163L6.38894 5.5L2.50663 1.61838C2.47462 1.58645 2.44922 1.54851 2.43189 1.50675C2.41456 1.46499 2.40564 1.42022 2.40564 1.375C2.40564 1.32979 2.41456 1.28502 2.43189 1.24326C2.44922 1.20149 2.47462 1.16356 2.50663 1.13163Z" fill="#606060"/>
<path fill-rule="evenodd" clip-rule="evenodd" d="M5.25663 1.13163C5.28856 1.09962 5.32649 1.07422 5.36826 1.05689C5.41002 1.03956 5.45479 1.03064 5.5 1.03064C5.54522 1.03064 5.58999 1.03956 5.63175 1.05689C5.67351 1.07422 5.71145 1.09962 5.74338 1.13163L9.86838 5.25663C9.90039 5.28856 9.92579 5.32649 9.94312 5.36826C9.96045 5.41002 9.96937 5.45479 9.96937 5.5C9.96937 5.54522 9.96045 5.58999 9.94312 5.63175C9.92579 5.67351 9.90039 5.71145 9.86838 5.74338L5.74338 9.86838C5.67883 9.93293 5.59129 9.96919 5.5 9.96919C5.40872 9.96919 5.32118 9.93293 5.25663 9.86838C5.19208 9.80383 5.15582 9.71629 5.15582 9.625C5.15582 9.53372 5.19208 9.44618 5.25663 9.38163L9.13894 5.5L5.25663 1.61838C5.22462 1.58645 5.19922 1.54851 5.18189 1.50675C5.16456 1.46499 5.15564 1.42022 5.15564 1.375C5.15564 1.32979 5.16456 1.28502 5.18189 1.24326C5.19922 1.20149 5.22462 1.16356 5.25663 1.13163Z" fill="#606060"/>
</svg>
